<svg version="1.1" viewBox="0 0 195 117" xmlns="http://www.w3.org/2000/svg">
    <defs>
        <linearGradient id="a" x1="0%" x2="100%" y1="0%" y2="0%">
            <stop offset="0%" stop-color="#ac0062"/>
            <stop offset="100%" stop-color="#000062"/>
        </linearGradient>
        <linearGradient id="b" x1="0%" x2="100%" y1="0%" y2="0%">
            <stop offset="0%" stop-color="#000062"/>
            <stop offset="100%" stop-color="#644fef"/>
        </linearGradient>
    </defs>
    <g>
        <path d="M50 92c14 0 24-11 24-25 0-12-9-24-25-24-11 0-23 9-23 24 0 13 10 25 24 25Zm-7 25-11-3 1-8-8-5-8 5-7-9 5-7-5-8H2L0 71l8-3V58l-6-4 4-11 8 2 6-8-3-7c2-3 6-5 9-7l6 6 9-3 1-8 12-1 2 8 9 2 5-5 10 5-2 8 6 7 8-2 5 10-6 5 1 9 8 3-1 11-8 1-4 9 5 6c-1 3-4 6-7 9l-7-4-8 5 1 9-11 3-4-7h-9Z" fill="url(#a)" stroke="black"/>
        <path d="M145 75c14 0 24-11 24-25 0-12-9-24-25-24-11 0-23 9-23 24 0 13 10 25 24 25Zm-7 25-11-3 1-8-8-5-8 5-7-9 5-7-5-8h-8l-2-11 8-3V41l-6-4 4-11 8 2 6-8-3-7c2-3 6-5 9-7l6 6 9-3 1-8 12-1 2 8 9 2 5-5 10 5-2 8 6 7 8-2 5 10-6 5 1 9 8 3-1 11-8 1-4 9 5 6c-1 3-4 6-7 9l-7-4-8 5 1 9-11 3-4-7h-9Z" fill="url(#b)" stroke="black"/>
    </g>
</svg>
